<svg width="342" height="209" viewBox="0 0 342 209" fill="none" xmlns="http://www.w3.org/2000/svg">
  <g clip-path="url(#clip0_4_3827)">
    <path d="M52.716 181.528C55.5164 191.891 65.1086 198.308 65.1086 198.308C65.1086 198.308 70.1604 187.925 67.3599 177.563C64.5595 167.2 54.9673 160.782 54.9673 160.782C54.9673 160.782 49.9155 171.166 52.716 181.528Z" fill="#3B4A67"/>
    <path d="M56.831 179.301C64.5155 186.789 65.4541 198.3 65.4541 198.3C65.4541 198.3 53.9337 197.67 46.2492 190.182C38.5648 182.694 37.6262 171.183 37.6262 171.183C37.6262 171.183 49.1466 171.813 56.831 179.301Z" fill="#F6AE2D"/>
    <path d="M307.695 208.164H37.1013V209H307.695V208.164Z" fill="#2F2E41"/>
    <path d="M68.9011 208.582H58.0439V197.714H68.9011V208.582ZM58.8791 207.746H68.0659V198.55H58.8791V207.746Z" fill="#3B4A67"/>
    <path d="M92.013 8.28751H0V100.392H92.013V8.28751Z" fill="#3B4A67"/>
    <path d="M92.013 31.2028V33.3168C90.6106 32.3867 89.4787 31.1024 88.7316 29.5937C87.5065 27.0858 87.5453 24.195 87.5841 21.3986C87.6285 18.0751 87.6728 14.9401 85.5665 12.8983C83.2496 10.6567 79.5413 10.973 75.9551 11.2782C75.5338 11.3114 75.1125 11.3503 74.6968 11.3835C71.0994 11.6554 67.0919 10.7455 65.1463 8.28751H67.5741C69.3534 9.48597 72.075 9.90766 74.5748 9.71899C74.9795 9.69125 75.3952 9.65241 75.811 9.61912C79.5857 9.29733 83.8648 8.93111 86.7195 11.6998C89.3468 14.241 89.2969 17.8919 89.247 21.4208C89.2082 24.023 89.175 26.7085 90.2282 28.8613C90.6651 29.7507 91.2714 30.5461 92.013 31.2028Z" fill="#F6AE2D"/>
    <path d="M92.013 45.823V48.2977C91.6092 47.7696 91.1564 47.281 90.6605 46.8384C87.8004 44.3139 83.693 43.759 79.7243 43.2153C79.2088 43.1487 78.7044 43.0766 78.2 43.0044C71.7646 42.0778 67.7737 39.864 66.0055 36.2519C64.7805 33.744 64.8193 30.8532 64.8581 28.0568C64.9024 24.7332 64.9467 21.5983 62.8404 19.5565C60.5235 17.3149 56.8152 17.6312 53.229 17.9363C52.8077 17.9696 52.3864 18.0084 51.9707 18.0417C47.3479 18.3913 42.0433 16.7878 41.3171 12.4544C41.0677 10.9674 41.4391 9.6025 41.9879 8.28751H43.806C43.1962 9.60805 42.7417 10.8842 42.9579 12.177C43.5066 15.4839 47.9521 16.6713 51.8488 16.3772C52.2534 16.3495 52.6691 16.3106 53.0849 16.2773C56.8596 15.9555 61.1387 15.5893 63.9934 18.358C66.6207 20.8992 66.5708 24.5501 66.521 28.079C66.4822 30.6812 66.4489 33.3667 67.5021 35.5195C69.0097 38.6045 72.5849 40.5131 78.4383 41.3565C78.9371 41.4286 79.4416 41.5008 79.946 41.5674C84.1586 42.1389 88.5209 42.7325 91.7635 45.59C91.8467 45.6622 91.9298 45.7398 92.013 45.823Z" fill="#F6AE2D"/>
    <path d="M92.013 87.5366V90.9545C90.012 88.8239 88.338 85.8998 87.0576 82.2434C86.786 81.4666 86.5254 80.6731 86.2649 79.8797C84.8293 75.5352 83.3438 71.0465 79.8074 68.1779C76.0271 65.1152 70.6116 64.4383 65.3736 63.7835C64.7028 63.7003 64.0322 63.6171 63.367 63.5283C54.8752 62.4019 49.6149 59.722 47.2813 55.3387C45.6628 52.2926 45.7127 48.786 45.7626 45.3958C45.8235 41.3676 45.8845 37.5614 43.102 35.0867C40.0478 32.3679 35.1534 32.7508 30.4252 33.1226C29.8654 33.1669 29.3111 33.2113 28.7679 33.2502C22.6651 33.6719 15.6644 31.7299 14.711 26.4754C14.2398 23.901 15.4426 21.6205 16.6011 19.4122C17.2663 18.1472 17.8981 16.9431 18.2197 15.7058C18.8959 13.1591 18.0589 10.2905 16.202 8.28751H18.9181C19.7018 9.42694 20.2351 10.7199 20.4826 12.081C20.7301 13.4421 20.6861 14.8402 20.3537 16.183C19.9712 17.6311 19.2617 18.985 18.5744 20.2945C17.5157 22.303 16.5235 24.2006 16.8727 26.1426C17.6044 30.1485 23.4633 31.5912 28.6016 31.2361C29.1393 31.1972 29.688 31.1528 30.2368 31.114C35.2144 30.7201 40.8571 30.2817 44.6263 33.6386C48.0906 36.718 48.0241 41.1457 47.9576 45.4236C47.9132 48.5807 47.8633 51.8376 49.2491 54.451C51.239 58.1851 55.9616 60.5044 63.6829 61.5308C64.337 61.6196 65.0022 61.7028 65.6673 61.7861C71.2324 62.4796 76.9805 63.1954 81.2541 66.6632C85.2616 69.9146 86.8414 74.6808 88.3601 79.2915C88.6207 80.0795 88.8812 80.8562 89.1472 81.6275C89.852 83.7093 90.8148 85.6945 92.013 87.5366Z" fill="#F6AE2D"/>
    <path d="M0 45.479C2.52759 48.5418 7.88762 49.6737 12.6934 49.3408C13.2366 49.302 13.7909 49.2576 14.3507 49.2132C19.0788 48.8414 23.9733 48.4586 27.0274 51.1774C29.81 53.652 29.749 57.4583 29.688 61.4865C29.6382 64.8766 29.5883 68.3832 31.2068 71.4294C33.5404 75.8127 38.8006 78.4926 47.2924 79.6189C47.9576 79.7077 48.6283 79.7909 49.299 79.8742C54.5371 80.5289 59.9525 81.2058 63.7328 84.2686C67.2692 87.1371 68.7548 91.6259 70.1904 95.9703C70.4509 96.7638 70.7114 97.5572 70.983 98.334C71.2324 99.0498 71.4985 99.7322 71.7757 100.392H74.148C73.7323 99.4881 73.3776 98.5837 73.0727 97.7181C72.8066 96.9469 72.5461 96.1701 72.2856 95.3822C70.7668 90.7714 69.1871 86.0053 65.1796 82.7538C60.9059 79.286 55.1579 78.5703 49.5928 77.8767C48.9276 77.7935 48.2625 77.7103 47.6084 77.6215C39.8871 76.595 35.1645 74.2757 33.1746 70.5416C31.7888 67.9283 31.8387 64.6713 31.8831 61.5142C31.9496 57.2363 32.0161 52.8086 28.5518 49.7292C24.7826 46.3724 19.1398 46.8107 14.1622 47.2047C13.6135 47.2435 13.0647 47.2879 12.5271 47.3267C7.38877 47.6818 1.52987 46.2392 0.798197 42.2332C0.449004 40.2912 1.44118 38.3937 2.49988 36.3851C3.18721 35.0757 3.89671 33.7218 4.27917 32.2737C5.32125 28.312 3.56413 23.9232 1.24725e-05 21.5262V24.245C1.94559 26.2536 2.83247 29.1887 2.14514 31.7965C1.82365 33.0338 1.19175 34.2378 0.526593 35.5029C0.34922 35.8413 0.17184 36.1743 1.24725e-05 36.5183L0 45.479Z" fill="#F6AE2D"/>
    <path d="M40.7019 100.392H38.4016C38.2796 100.032 38.1632 99.6656 38.0413 99.2994C36.6056 94.955 35.1201 90.4662 31.5837 87.5977C27.8034 84.5349 22.388 83.858 17.1499 83.2032C16.4792 83.12 15.8085 83.0368 15.1433 82.948C7.64926 81.9548 2.66616 79.7465 0 76.2288V70.7081C0.171352 71.8102 0.517526 72.8779 1.02543 73.8707C3.01537 77.6048 7.73797 79.9241 15.4593 80.9505C16.1134 81.0393 16.7785 81.1226 17.4436 81.2058C23.0088 81.8994 28.7568 82.6151 33.0305 86.0829C37.038 89.3343 38.6177 94.1005 40.1365 98.7113C40.325 99.2772 40.5079 99.8376 40.7019 100.392Z" fill="#F6AE2D"/>
    <path d="M216.729 8.28751H124.716V100.392H216.729V8.28751Z" fill="#3B4A67"/>
    <path d="M169.06 14.9457C169.06 20.1348 167.688 25.2315 165.083 29.7182C162.479 34.205 158.735 37.9221 154.232 40.4922C149.728 43.0623 144.625 44.3939 139.442 44.3518C134.258 44.3096 129.178 42.8953 124.716 40.2524V8.28751H168.301C168.808 10.4704 169.063 12.7045 169.06 14.9457Z" fill="#F6AE2D"/>
    <path d="M192.895 51.0109C202.691 51.0109 210.632 43.0616 210.632 33.2557C210.632 23.4498 202.691 15.5005 192.895 15.5005C183.099 15.5005 175.157 23.4498 175.157 33.2557C175.157 43.0616 183.099 51.0109 192.895 51.0109Z" fill="#F6AE2D"/>
    <path d="M152.985 83.747C160.026 83.747 165.734 78.0335 165.734 70.9855C165.734 63.9375 160.026 58.2239 152.985 58.2239C145.944 58.2239 140.237 63.9375 140.237 70.9855C140.237 78.0335 145.944 83.747 152.985 83.747Z" fill="#F6AE2D"/>
    <path d="M216.729 85.3006V100.392H198.488C197.713 97.9649 197.682 95.3607 198.399 92.9154C199.116 90.4701 200.548 88.2956 202.51 86.6721C204.473 85.0486 206.876 84.0503 209.41 83.8059C211.944 83.5614 214.493 84.082 216.729 85.3006H216.729Z" fill="#F6AE2D"/>
    <path d="M185.135 73.7597C186.971 73.7597 188.46 72.2692 188.46 70.4306C188.46 68.592 186.971 67.1015 185.135 67.1015C183.298 67.1015 181.809 68.592 181.809 70.4306C181.809 72.2692 183.298 73.7597 185.135 73.7597Z" fill="#F6AE2D"/>
    <path d="M342 8.28751H249.987V100.392H342V8.28751Z" fill="#3B4A67"/>
    <path d="M294.885 8.28751V46.0173H249.987V48.2367H297.102V8.28751H294.885Z" fill="#F6AE2D"/>
    <path d="M338.192 100.392L342 94.9716V91.1154L335.481 100.392H338.192ZM322.727 60.6764L302.324 89.7227L317.484 100.392H321.336L305.411 89.1845L323.265 63.7669L342 76.9557V74.2425L322.727 60.6764Z" fill="#F6AE2D"/>
    <path d="M288.788 56.9977L277.031 68.7661L288.788 80.5344L300.544 68.7661L288.788 56.9977ZM280.163 68.7661L288.788 60.1326L297.412 68.7661L288.788 77.3995L280.163 68.7661Z" fill="#F6AE2D"/>
    <path d="M45.0989 16.72C49.7114 16.72 53.4506 12.9771 53.4506 8.36C53.4506 3.7429 49.7114 0 45.0989 0C40.4864 0 36.7473 3.7429 36.7473 8.36C36.7473 12.9771 40.4864 16.72 45.0989 16.72Z" fill="#F2F2F2"/>
    <path d="M174.132 16.72C178.744 16.72 182.483 12.9771 182.483 8.36C182.483 3.7429 178.744 0 174.132 0C169.519 0 165.78 3.7429 165.78 8.36C165.78 12.9771 169.519 16.72 174.132 16.72Z" fill="#F2F2F2"/>
    <path d="M297.319 16.72C301.931 16.72 305.67 12.9771 305.67 8.36C305.67 3.7429 301.931 0 297.319 0C292.706 0 288.967 3.7429 288.967 8.36C288.967 12.9771 292.706 16.72 297.319 16.72Z" fill="#F2F2F2"/>
    <path d="M165.571 57.057C169.953 57.057 173.505 53.5012 173.505 49.115C173.505 44.7288 169.953 41.173 165.571 41.173C161.19 41.173 157.637 44.7288 157.637 49.115C157.637 53.5012 161.19 57.057 165.571 57.057Z" fill="#FFB8B8"/>
    <path d="M161.396 52.877C161.396 52.877 163.484 63.745 162.648 65.835C161.813 67.925 174.341 64.999 174.341 64.999C174.341 64.999 171.835 54.131 172.253 51.623C172.67 49.115 161.396 52.877 161.396 52.877Z" fill="#FFB8B8"/>
    <path d="M147.616 90.4971L148.451 101.783L152.595 119.507L153.879 124.355L155.967 116.831L153.879 99.6929L153.17 91.9771L147.616 90.4971Z" fill="#FFB8B8"/>
    <path d="M191.462 88.825V100.529C191.462 100.529 190.209 115.577 187.703 119.339C185.198 123.101 184.363 104.291 184.363 104.291L186.326 90.497L191.462 88.825Z" fill="#FFB8B8"/>
    <path d="M154.297 125.191C154.297 125.191 152.209 127.699 153.879 153.197C155.549 178.695 153.044 197.087 158.473 197.087C158.473 197.087 156.802 202.521 161.396 202.939C165.989 203.357 168.077 203.775 168.495 202.521C168.912 201.267 169.747 195.415 168.495 195.415C168.495 195.415 168.495 197.087 169.33 190.399C170.165 183.711 170.165 151.943 172.253 147.763L178.934 163.229C178.934 163.229 178.934 170.335 180.187 173.679C181.44 177.023 183.527 196.251 183.527 196.251L183.11 199.177C183.11 199.177 193.132 200.849 193.549 199.177C193.967 197.505 193.967 194.997 193.549 194.161C193.132 193.325 193.132 193.325 193.967 191.653C194.802 189.981 194.802 188.727 194.385 187.473C193.967 186.219 193.967 159.049 193.967 159.049C193.967 159.049 193.132 126.027 188.121 124.355C183.11 122.683 154.297 125.191 154.297 125.191Z" fill="#2F2E41"/>
    <path d="M159.725 199.595L156.385 205.447C156.385 205.447 151.165 203.566 152.209 208.373C161.187 209 167.451 208.164 167.451 208.164C167.451 208.164 169.538 209 169.956 207.746C170.374 206.492 168.912 202.103 167.659 202.103C166.407 202.103 159.725 199.595 159.725 199.595Z" fill="#2F2E41"/>
    <path d="M183.945 197.923C183.945 197.923 180.604 205.447 181.857 205.865C183.11 206.283 194.385 207.955 195.22 208.373C196.055 208.791 200.231 209.209 200.648 206.701C201.066 204.193 198.56 203.357 198.56 203.357C198.56 203.357 193.967 202.521 192.714 198.341C191.462 194.161 183.945 197.923 183.945 197.923Z" fill="#2F2E41"/>
    <path d="M175.176 63.745C175.176 63.745 163.901 61.655 161.396 63.745C158.89 65.835 148.451 70.015 148.451 72.105C148.451 74.195 153.879 94.677 153.879 94.677C153.879 94.677 150.956 125.609 153.879 126.445C156.802 127.281 161.813 124.773 167.659 127.699C173.506 130.625 190.209 125.191 190.209 125.191C190.209 125.191 183.945 98.439 185.615 93.423C187.286 88.407 188.538 71.269 188.538 71.269C188.538 71.269 181.44 63.745 175.176 63.745Z" fill="#E6E6E6"/>
    <path d="M151.374 70.851L148.451 71.687C148.451 71.687 142.187 91.333 144.692 92.169C147.198 93.005 154.297 94.677 155.132 94.677C155.967 94.677 151.374 70.851 151.374 70.851Z" fill="#E6E6E6"/>
    <path d="M181.857 68.761L188.538 71.269C188.538 71.269 197.308 87.571 195.22 89.661C193.132 91.751 183.945 93.841 183.945 93.841L181.857 68.761Z" fill="#E6E6E6"/>
    <path d="M165.33 39.3055C164.671 39.1858 163.992 39.2158 163.346 39.3932C162.828 39.6226 162.352 39.9355 161.935 40.3194C161.18 40.9221 160.373 41.4573 159.524 41.9187C158.847 42.2864 158.12 42.6268 157.647 43.2354C157.424 43.543 157.246 43.8809 157.118 44.2389C156.304 46.3192 156.085 48.5854 156.486 50.7833C156.531 51.0956 156.625 51.3988 156.764 51.6819C157.198 52.4823 158.157 52.7978 158.964 53.2174C160.497 54.014 161.66 55.3554 162.917 56.5409C163.384 57.0076 163.909 57.4125 164.479 57.7457C166.273 58.7248 168.465 58.4054 170.479 58.0592C170.622 58.0589 170.763 58.0304 170.895 57.9752C171.026 57.92 171.146 57.8393 171.246 57.7377C171.346 57.6362 171.426 57.5157 171.479 57.3833C171.533 57.2509 171.56 57.1092 171.558 56.9664L173.148 49.81C173.436 48.7497 173.573 47.654 173.555 46.5553C173.444 44.8181 172.505 42.4117 171.231 41.1777C169.747 39.7399 167.27 39.5111 165.33 39.3055Z" fill="#2F2E41"/>
    <path d="M111.595 202.279C113.415 202.279 114.89 200.802 114.89 198.98C114.89 197.158 113.415 195.682 111.595 195.682C109.775 195.682 108.299 197.158 108.299 198.98C108.299 200.802 109.775 202.279 111.595 202.279Z" fill="#F6AE2D"/>
    <path d="M111.595 208.509C109.712 208.509 107.871 207.951 106.306 206.904C104.74 205.856 103.52 204.368 102.8 202.627C102.079 200.886 101.891 198.97 102.258 197.121C102.625 195.273 103.532 193.575 104.863 192.242C106.195 190.909 107.891 190.002 109.737 189.634C111.584 189.266 113.498 189.455 115.238 190.176C116.977 190.898 118.464 192.119 119.51 193.686C120.556 195.253 121.114 197.095 121.114 198.98C121.112 201.507 120.108 203.929 118.323 205.715C116.538 207.502 114.119 208.507 111.595 208.509ZM111.595 190.184C109.857 190.184 108.158 190.7 106.713 191.666C105.268 192.633 104.141 194.007 103.476 195.614C102.811 197.221 102.637 198.99 102.976 200.696C103.315 202.403 104.152 203.97 105.381 205.2C106.61 206.43 108.176 207.268 109.88 207.607C111.585 207.947 113.352 207.773 114.958 207.107C116.563 206.441 117.936 205.314 118.901 203.867C119.867 202.421 120.382 200.72 120.382 198.98C120.379 196.648 119.453 194.412 117.805 192.763C116.158 191.114 113.924 190.187 111.595 190.184Z" fill="#2F2E41"/>
    <path d="M271.946 202.697C273.766 202.697 275.242 201.22 275.242 199.398C275.242 197.576 273.766 196.1 271.946 196.1C270.126 196.1 268.651 197.576 268.651 199.398C268.651 201.22 270.126 202.697 271.946 202.697Z" fill="#F6AE2D"/>
    <path d="M271.946 208.927C270.064 208.927 268.223 208.369 266.657 207.322C265.092 206.274 263.872 204.786 263.151 203.045C262.431 201.304 262.242 199.388 262.61 197.539C262.977 195.691 263.884 193.993 265.215 192.66C266.546 191.327 268.243 190.42 270.089 190.052C271.936 189.684 273.85 189.873 275.589 190.594C277.329 191.316 278.816 192.537 279.862 194.104C280.908 195.671 281.466 197.513 281.466 199.398C281.463 201.925 280.459 204.347 278.675 206.133C276.89 207.92 274.47 208.925 271.946 208.927ZM271.946 190.602C270.208 190.602 268.509 191.118 267.064 192.084C265.619 193.051 264.493 194.425 263.828 196.032C263.163 197.639 262.989 199.408 263.328 201.114C263.667 202.821 264.504 204.388 265.733 205.618C266.962 206.848 268.527 207.686 270.232 208.025C271.937 208.365 273.703 208.191 275.309 207.525C276.915 206.859 278.287 205.732 279.253 204.285C280.218 202.839 280.734 201.138 280.734 199.398C280.731 197.066 279.804 194.83 278.157 193.181C276.51 191.532 274.276 190.605 271.946 190.602V190.602Z" fill="#2F2E41"/>
    <path d="M271.946 184.305C273.766 184.305 275.242 182.828 275.242 181.006C275.242 179.184 273.766 177.708 271.946 177.708C270.126 177.708 268.651 179.184 268.651 181.006C268.651 182.828 270.126 184.305 271.946 184.305Z" fill="#F6AE2D"/>
    <path d="M271.946 190.535C270.064 190.535 268.223 189.977 266.657 188.93C265.092 187.882 263.872 186.394 263.151 184.653C262.431 182.912 262.242 180.996 262.61 179.147C262.977 177.299 263.884 175.601 265.215 174.268C266.546 172.935 268.243 172.028 270.089 171.66C271.936 171.292 273.85 171.481 275.589 172.202C277.329 172.924 278.816 174.145 279.862 175.712C280.908 177.279 281.466 179.121 281.466 181.006C281.463 183.533 280.459 185.955 278.675 187.741C276.89 189.528 274.47 190.533 271.946 190.535ZM271.946 172.21C270.208 172.21 268.509 172.726 267.064 173.692C265.619 174.659 264.493 176.033 263.828 177.64C263.163 179.247 262.989 181.016 263.328 182.722C263.667 184.429 264.504 185.996 265.733 187.226C266.962 188.456 268.527 189.294 270.232 189.633C271.937 189.973 273.703 189.799 275.309 189.133C276.915 188.467 278.287 187.34 279.253 185.893C280.218 184.447 280.734 182.746 280.734 181.006C280.731 178.674 279.804 176.438 278.157 174.789C276.51 173.14 274.276 172.213 271.946 172.21Z" fill="#2F2E41"/>
  </g>
  <defs>
    <clipPath id="clip0_4_3827">
      <rect width="342" height="209" fill="white"/>
    </clipPath>
  </defs>
</svg>
