<svg width="31" height="27" viewBox="0 0 31 27" fill="none" xmlns="http://www.w3.org/2000/svg">
<path d="M0.450012 13.65C0.450012 14.7546 1.34544 15.65 2.45001 15.65H28.55C29.6546 15.65 30.55 14.7546 30.55 13.65V13.35C30.55 12.2454 29.6546 11.35 28.55 11.35H2.45001C1.34544 11.35 0.450012 12.2454 0.450012 13.35V13.65ZM0.450012 24.4C0.450012 25.5046 1.34544 26.4 2.45001 26.4H28.55C29.6546 26.4 30.55 25.5046 30.55 24.4V24.1C30.55 22.9954 29.6546 22.1 28.55 22.1H2.45001C1.34544 22.1 0.450012 22.9954 0.450012 24.1V24.4ZM2.45001 0.600006C1.34544 0.600006 0.450012 1.49544 0.450012 2.60001V2.90001C0.450012 4.00458 1.34544 4.90001 2.45001 4.90001H28.55C29.6546 4.90001 30.55 4.00458 30.55 2.90001V2.6C30.55 1.49544 29.6546 0.600006 28.55 0.600006H15.5H2.45001Z" fill="white"/>
</svg>
