<svg width="111" height="110" viewBox="0 0 111 110" fill="none" xmlns="http://www.w3.org/2000/svg">
<g clip-path="url(#clip0_1_62)">
<path d="M45.8902 57.0027C44.8449 57.0027 43.8984 56.5797 43.2127 55.8953C43.0062 55.6894 42.8234 55.4596 42.6686 55.2107C42.308 54.6304 42.0997 53.9457 42.0997 53.2123C42.0997 52.4813 42.3066 51.7986 42.6651 51.2196C42.8202 50.9692 43.0035 50.7382 43.2107 50.5312C43.8966 49.8457 44.8439 49.4218 45.8902 49.4218C46.9358 49.4218 47.8825 49.8452 48.5682 50.5299C48.7768 50.738 48.9611 50.9703 49.1167 51.2222C49.453 51.7661 49.6554 52.4012 49.6784 53.0819C49.6799 53.1252 49.6806 53.1687 49.6806 53.2123C49.6806 53.2559 49.6799 53.2993 49.6784 53.3426C49.6553 54.0271 49.4506 54.6657 49.111 55.2116C48.9565 55.46 48.774 55.6893 48.5681 55.8949C47.8823 56.5794 46.9356 57.0027 45.8902 57.0027ZM49.6858 40.278V48.4239C49.6834 48.4219 49.6809 48.4199 49.6784 48.418C48.6365 47.5955 47.3206 47.1046 45.8902 47.1046C44.2043 47.1046 42.6776 47.7865 41.571 48.8893C41.2368 49.2223 40.9409 49.5938 40.6904 49.9966C40.143 50.8768 39.8129 51.906 39.7751 53.0095V53.426C39.8129 54.5281 40.1422 55.5562 40.6883 56.4357C40.9383 56.8384 41.2339 57.21 41.5677 57.5432C42.6747 58.648 44.2027 59.3311 45.8902 59.3311C47.3206 59.3311 48.6365 58.8401 49.6784 58.0176C49.6809 58.0157 49.6834 58.0138 49.6858 58.0118C49.8707 57.8654 50.0468 57.7087 50.2134 57.5422C50.5463 57.2099 50.8412 56.8392 51.0907 56.4377C51.6624 55.5179 51.9969 54.4354 52.0086 53.2756V51.7612H52.0052V47.0898H52.0022L52.003 47.089H52.0178V40.278H49.6858Z" fill="#F8485E"/>
<path d="M83.1662 47.1395H80.8521V59.3339H83.1662V47.1395Z" fill="#F8485E"/>
<path d="M109.634 49.9889C109.383 49.5832 109.086 49.2091 108.75 48.8738C108.581 48.7053 108.402 48.5466 108.215 48.3986C107.173 47.5762 105.857 47.0852 104.427 47.0852C102.998 47.0852 101.683 47.5751 100.641 48.3963C100.452 48.5455 100.272 48.7055 100.102 48.8755C99.7679 49.2094 99.4721 49.5816 99.222 49.9853C98.6776 50.8637 98.3494 51.89 98.3117 52.9902V53.426C98.3668 55.0328 99.0415 56.4823 100.104 57.5431C100.274 57.7123 100.453 57.8715 100.641 58.0199V53.4034C100.638 53.3373 100.636 53.2708 100.636 53.204C100.636 53.1372 100.638 53.0707 100.641 53.0046C100.675 52.3489 100.876 51.7373 101.202 51.2113C101.357 50.9609 101.54 50.73 101.747 50.5229C102.433 49.8374 103.38 49.4136 104.427 49.4136C105.472 49.4136 106.419 49.8369 107.105 50.5216C107.313 50.7297 107.498 50.962 107.653 51.214C107.99 51.7578 108.192 52.3929 108.215 53.0736C108.216 53.1169 108.217 53.1604 108.217 53.204C108.217 53.2476 108.216 53.291 108.215 53.3343V59.3256H110.545V53.1407C110.533 51.9853 110.201 50.9065 109.634 49.9889Z" fill="#F8485E"/>
<path d="M55.9836 52.0409C56.1707 51.466 56.4914 50.9516 56.9092 50.5339C57.5951 49.8486 58.5423 49.4247 59.5886 49.4247C61.2722 49.4247 62.6994 50.5223 63.1936 52.0409H55.9836ZM65.5948 52.0409C65.0471 49.2234 62.5662 47.0964 59.5886 47.0964C57.8999 47.0964 56.371 47.7805 55.2639 48.8867C54.4188 49.731 53.8194 50.8213 53.5825 52.0409C53.5218 52.3533 53.4847 52.6741 53.4735 53.0014V53.429C53.4847 53.7557 53.5216 54.076 53.5821 54.3878C54.1291 57.2062 56.6103 59.3339 59.5886 59.3339C61.2765 59.3339 62.8048 58.6504 63.9119 57.5451L62.2665 55.8977C61.5808 56.5823 60.6341 57.0056 59.5886 57.0056C57.9045 57.0056 56.4768 55.9073 55.9831 54.3878H65.5951C65.6649 54.0283 65.7033 53.6575 65.707 53.2784V53.1519C65.7033 52.7723 65.6648 52.4011 65.5948 52.0409Z" fill="#F8485E"/>
<path d="M90.7363 56.9907C89.6911 56.9907 88.7446 56.5676 88.0589 55.8833C87.8524 55.6773 87.6696 55.4476 87.5148 55.1987C87.1871 54.6714 86.9851 54.0577 86.9511 53.3996C86.9476 53.3337 86.9459 53.2671 86.9459 53.2002C86.9459 53.1334 86.9476 53.0669 86.9511 53.0009C86.9851 52.3452 87.1856 51.7336 87.5113 51.2077C87.6664 50.9573 87.8497 50.7263 88.0569 50.5191C88.7428 49.8338 89.6901 49.4098 90.7363 49.4098C91.782 49.4098 92.7288 49.8332 93.4144 50.518C93.623 50.7261 93.8073 50.9583 93.963 51.2102C94.2992 51.7541 94.5017 52.3893 94.5246 53.07C94.5261 53.1132 94.5268 53.1566 94.5268 53.2002C94.5268 53.2439 94.5261 53.2874 94.5246 53.3306C94.5015 54.0152 94.2968 54.6537 93.9572 55.1996C93.8027 55.448 93.6202 55.6772 93.4143 55.8829C92.7285 56.5674 91.7818 56.9907 90.7363 56.9907ZM95.9434 49.9852C95.6924 49.5795 95.3952 49.2054 95.0594 48.8701C94.8906 48.7015 94.712 48.5429 94.5246 48.3949C93.4827 47.5724 92.1668 47.0815 90.7363 47.0815C89.3072 47.0815 87.9925 47.5715 86.9511 48.3926C86.7619 48.5417 86.5818 48.7018 86.4117 48.8718C86.0775 49.2056 85.7817 49.5779 85.5316 49.9816C85.0665 50.7321 84.7591 51.5907 84.656 52.511C84.6384 52.6677 84.6268 52.8263 84.6213 52.9865V53.414C84.6591 54.5161 84.9884 55.5442 85.5345 56.4236C85.7845 56.8264 86.0801 57.198 86.4139 57.5312C86.5834 57.7004 86.7628 57.8596 86.9511 58.008C87.9925 58.8291 89.3072 59.319 90.7363 59.319C92.1668 59.319 93.4827 58.8282 94.5246 58.0056C94.7121 57.8576 94.8907 57.6988 95.0596 57.5302C95.3925 57.1979 95.6874 56.8273 95.9369 56.4257C96.5086 55.506 96.8431 54.4234 96.8548 53.2636V53.1371C96.8431 51.9815 96.5111 50.9027 95.9434 49.9852Z" fill="#F8485E"/>
<path d="M96.8558 63.6389C96.8558 64.8227 96.5197 65.9279 95.9376 66.8644C95.688 67.2658 95.3932 67.6365 95.0603 67.9688C94.8914 68.1374 94.7128 68.2963 94.5253 68.4443C93.4833 69.2667 92.1675 69.7577 90.737 69.7577C89.3079 69.7577 87.9931 69.2677 86.9518 68.4466C86.7635 68.2982 86.5841 68.1389 86.4146 67.9698L86.9518 67.4318L88.0596 66.3219C88.7452 67.0063 89.6917 67.4293 90.737 67.4293C91.7825 67.4293 92.7292 67.006 93.415 66.3214C93.6209 66.1159 93.8033 65.8867 93.9579 65.6383C94.2975 65.0923 94.5022 64.4537 94.5253 63.7692C94.5267 63.7259 94.5275 63.6825 94.5275 63.6389C94.5275 63.5952 94.5267 63.5518 94.5253 63.5085C94.5023 62.8278 94.2998 62.1926 93.9636 61.6488C93.8079 61.3969 93.6236 61.1646 93.4151 60.9565L94.5253 59.8444L95.06 59.3087C95.3959 59.6439 95.6931 60.0181 95.9441 60.4238C96.5221 61.3581 96.8558 62.4595 96.8558 63.6389Z" fill="#F8485E"/>
<path d="M24.6277 57.545C23.5207 58.6504 21.9923 59.3339 20.3044 59.3339C18.6169 59.3339 17.0889 58.6508 15.982 57.546C14.9191 56.4852 14.2445 55.0357 14.1893 53.4289V53.0013C14.2444 51.3957 14.9181 49.9471 15.9797 48.8866C17.0868 47.7804 18.6157 47.0963 20.3044 47.0963C21.9921 47.0963 23.5204 47.7798 24.6274 48.8849L22.9825 50.5328C22.2967 49.848 21.35 49.4247 20.3044 49.4247C19.2581 49.4247 18.3108 49.8486 17.625 50.5339C16.9386 51.22 16.5139 52.168 16.5139 53.2151C16.5139 54.2632 16.9393 55.212 17.627 55.8981C18.3126 56.5825 19.2592 57.0056 20.3044 57.0056C21.3499 57.0056 22.2965 56.5822 22.9823 55.8977L24.6277 57.545Z" fill="white"/>
<path d="M36.5236 48.8821C36.3544 48.713 36.1754 48.554 35.9874 48.4057C34.9457 47.584 33.6304 47.0935 32.2006 47.0935C30.7716 47.0935 29.4567 47.5834 28.4154 48.4046V40.278H26.0833V47.8478L26.0855 47.85V53.4261C26.1408 55.0328 26.8154 56.4823 27.8783 57.5431C28.0477 57.7123 28.2271 57.8715 28.4154 58.0199V53.4116C28.412 53.3455 28.4102 53.2791 28.4102 53.2123C28.4102 53.1454 28.412 53.079 28.4154 53.0129C28.4494 52.3572 28.6499 51.7456 28.9757 51.2195C29.1307 50.9692 29.3141 50.7382 29.5213 50.5312C30.2072 49.8457 31.1544 49.4218 32.2006 49.4218C33.2463 49.4218 34.193 49.8452 34.8788 50.5299C35.5288 51.1789 35.9444 52.0628 35.9874 53.0433C35.9899 53.0993 35.9911 53.1556 35.9911 53.2123C35.9911 53.2688 35.9899 53.3253 35.9874 53.3812V59.3339H38.3194V53.2123C38.3194 51.5208 37.6331 49.9896 36.5236 48.8821Z" fill="white"/>
<path d="M6.61597 53.2203L6.6019 53.2291L6.61265 53.2182L6.61466 53.2162L6.6178 53.2192L6.62357 53.2251L6.61597 53.2203ZM12.6212 52.0409H3.01008C3.10435 51.7513 3.23253 51.4769 3.39006 51.2225C3.54514 50.9721 3.72844 50.7412 3.93569 50.534C4.62155 49.8486 5.56882 49.4247 6.61509 49.4247C7.66075 49.4247 8.60741 49.8481 9.29319 50.5328L10.938 48.885C9.83113 47.7798 8.30284 47.0964 6.61509 47.0964C5.18597 47.0964 3.87121 47.5863 2.82983 48.4075C2.64059 48.5567 2.46052 48.7166 2.29041 48.8867C1.95621 49.2205 1.66046 49.5928 1.41032 49.9964C1.0279 50.6135 0.752153 51.3036 0.608952 52.0409C0.548229 52.3533 0.511183 52.6741 0.5 53.0014V53.429C0.511183 53.7558 0.548054 54.076 0.608602 54.3878H10.2206C10.1255 54.6807 9.99565 54.9578 9.83593 55.2146C9.68138 55.4629 9.49894 55.6922 9.29301 55.8977C8.60724 56.5823 7.66057 57.0056 6.61509 57.0056C5.56979 57.0056 4.6233 56.5826 3.93761 55.8982L2.82983 57.008L2.29268 57.5461C2.46218 57.7152 2.64155 57.8745 2.82983 58.0229C3.87121 58.844 5.18597 59.3339 6.61509 59.3339C8.30301 59.3339 9.8313 58.6504 10.9384 57.5451C11.2713 57.2128 11.5661 56.8421 11.8157 56.4406C12.2005 55.8214 12.4779 55.1284 12.6216 54.3878C12.6914 54.0283 12.7297 53.6575 12.7335 53.2784V53.1519C12.7297 52.7723 12.6913 52.4011 12.6212 52.0409Z" fill="white"/>
<path d="M83.1245 41.4426C83.1245 42.0857 82.6031 42.6071 81.9599 42.6071C81.3168 42.6071 80.7954 42.0857 80.7954 41.4426C80.7954 40.7994 81.3168 40.278 81.9599 40.278C82.6031 40.278 83.1245 40.7994 83.1245 41.4426Z" fill="#F8485E"/>
<path d="M73.2788 53.2203L73.2647 53.2291L73.2754 53.2182L73.2775 53.2162L73.2806 53.2192L73.2864 53.2251L73.2788 53.2203ZM79.284 52.0409H69.6729C69.7671 51.7513 69.8953 51.4769 70.0529 51.2225C70.2079 50.9721 70.3913 50.7412 70.5985 50.534C71.2843 49.8486 72.2317 49.4247 73.2779 49.4247C74.3235 49.4247 75.2702 49.8481 75.9561 50.5328L77.6008 48.885C76.4939 47.7798 74.9657 47.0964 73.2779 47.0964C71.8488 47.0964 70.534 47.5863 69.4926 48.4075C69.3035 48.5567 69.1233 48.7166 68.9532 48.8867C68.619 49.2205 68.3233 49.5928 68.0731 49.9964C67.6907 50.6135 67.4149 51.3036 67.2717 52.0409C67.211 52.3533 67.174 52.6741 67.1628 53.0014V53.429C67.174 53.7558 67.2108 54.076 67.2714 54.3878H76.8834C76.7883 54.6807 76.6584 54.9578 76.4987 55.2146C76.3443 55.4629 76.1617 55.6922 75.9558 55.8977C75.27 56.5823 74.3234 57.0056 73.2779 57.0056C72.2326 57.0056 71.2861 56.5826 70.6004 55.8982L69.4926 57.008L68.9556 57.5461C69.125 57.7152 69.3043 57.8745 69.4926 58.0229C70.534 58.844 71.8488 59.3339 73.2779 59.3339C74.9658 59.3339 76.4942 58.6504 77.6012 57.5451C77.9341 57.2128 78.2289 56.8421 78.4786 56.4406C78.8633 55.8214 79.1407 55.1284 79.2844 54.3878C79.3542 54.0283 79.3925 53.6575 79.3963 53.2784V53.1519C79.3925 52.7723 79.3541 52.4011 79.284 52.0409Z" fill="#F8485E"/>
</g>
<defs>
<clipPath id="clip0_1_62">
<rect width="110" height="110" fill="white" transform="translate(0.5)"/>
</clipPath>
</defs>
</svg>
