<svg width="78" height="25" viewBox="0 0 78 25" fill="none" xmlns="http://www.w3.org/2000/svg">
<path d="M9.79583 0.00341702L5.28902 0.214269L5.09806 14.0727L7.7425 14.1006L8.21284 13.1525L9.89118 12.2516L9.79583 0.00341702Z" fill="white"/>
<path fill-rule="evenodd" clip-rule="evenodd" d="M6.74457 16.112L7.35672 14.8782L4.49668 14.8515L4.71068 1.04786L4.64093 1.05043L3.29901 1.10009L2.99454 15.2288L0.795802 17.5902L0.615494 22.3742L6.37439 22.3651L6.74457 16.112Z" fill="white"/>
<path fill-rule="evenodd" clip-rule="evenodd" d="M11.8561 11.1967L11.7065 0.827844L10.4709 0.834774L10.383 0.837982L10.4802 11.9353L11.8561 11.1967Z" fill="white"/>
<path fill-rule="evenodd" clip-rule="evenodd" d="M10.3003 16.3902L11.0025 15.5476L11.7046 16.4604L11.6578 18.8244L10.2301 18.7776L10.3003 16.3902ZM13.226 16.7179L13.9281 15.9689L14.5132 16.7413L14.4665 18.9882L13.1791 18.9414L13.226 16.7179ZM16.1516 17.0924L16.7367 16.4136L17.2751 17.0689L17.2985 19.1988L16.0814 19.1754L16.1516 17.0924ZM21.6753 17.0222L22.12 17.7477L22.0732 19.5265H21.1604L21.1136 17.6541L21.6753 17.0222ZM23.6881 17.186L24.1563 17.8413L24.2031 19.5733L23.22 19.5968L23.1966 17.8647L23.6881 17.186ZM25.3967 17.4201L25.8414 18.052V19.6669L25.0222 19.7138L24.9988 18.0286L25.3967 17.4201ZM7.57746 16.32L7.20298 22.3117L18.0725 22.347L18.141 19.0428L18.6326 19.0713V17.3732L19.2645 16.6711L19.8497 17.3499L19.8281 19.1406L20.2943 19.1676L20.3635 22.3545L26.4266 22.3742L26.2627 16.32L22.0654 13.8624L12.633 11.8262L8.95063 13.6986L7.57746 16.32Z" fill="white"/>
<path d="M26.4266 23.1707H0.5V24.0107H26.4266V23.1707Z" fill="white"/>
<path d="M31.2595 23.0099L31.7088 21.9194C32.1893 22.2564 32.6619 22.4249 33.127 22.4249C33.8413 22.4249 34.1988 22.1753 34.1988 21.6761C34.1988 21.4421 34.1144 21.219 33.9459 21.0068C33.7775 20.7946 33.4304 20.5568 32.9046 20.2931C32.3788 20.0295 32.0247 19.8126 31.8422 19.6425C31.6596 19.4725 31.5192 19.2705 31.421 19.0364C31.3227 18.8025 31.2736 18.5435 31.2736 18.2596C31.2736 17.7291 31.4678 17.2892 31.8562 16.9396C32.2447 16.5903 32.7432 16.4155 33.3516 16.4155C34.144 16.4155 34.726 16.5637 35.0973 16.8601L34.7276 17.9085C34.3001 17.6027 33.8492 17.4499 33.375 17.4499C33.0941 17.4499 32.8765 17.524 32.7221 17.6721C32.5676 17.8204 32.4904 18.0131 32.4904 18.2501C32.4904 18.6433 32.9257 19.0521 33.7962 19.4764C34.2548 19.7011 34.5856 19.9077 34.7884 20.0966C34.9912 20.2854 35.1457 20.5053 35.2517 20.7564C35.3578 21.0076 35.4109 21.2876 35.4109 21.5965C35.4109 22.1519 35.1916 22.609 34.7534 22.9678C34.315 23.3267 33.7275 23.506 32.9912 23.506C32.3516 23.506 31.7743 23.3407 31.2595 23.0099Z" fill="white"/>
<path d="M40.3485 18.7743L39.8477 19.6495C39.5731 19.3906 39.2049 19.2611 38.7432 19.2611C38.3001 19.2611 37.9499 19.4085 37.6924 19.7034C37.4351 19.9982 37.3064 20.4062 37.3064 20.9273C37.3064 21.9787 37.8071 22.5045 38.8086 22.5045C39.2423 22.5045 39.6246 22.361 39.9553 22.0739L40.3859 22.9959C40.0458 23.2082 39.7485 23.3422 39.4943 23.3984C39.2401 23.4546 38.9397 23.4827 38.5934 23.4827C37.8196 23.4827 37.2088 23.2572 36.7611 22.8063C36.3134 22.3555 36.0894 21.7292 36.0894 20.9273C36.0894 20.1379 36.3344 19.4998 36.8243 19.0131C37.3141 18.5263 37.9818 18.2829 38.8274 18.2829C39.4109 18.2829 39.9179 18.4467 40.3485 18.7743Z" fill="white"/>
<path d="M44.5653 23.389V20.3001C44.5653 19.9912 44.4686 19.7432 44.2752 19.556C44.0817 19.3687 43.829 19.2751 43.5169 19.2751C43.3234 19.2751 43.1285 19.3274 42.9319 19.4319C42.7354 19.5365 42.595 19.6558 42.5107 19.7899V23.389H41.3219V16.5091L42.5107 16.2283V18.6948C42.8133 18.4202 43.2299 18.2829 43.7604 18.2829C44.3875 18.2829 44.8743 18.4569 45.2207 18.8048C45.5668 19.1527 45.7401 19.6511 45.7401 20.3001V23.389H44.5653Z" fill="white"/>
<path d="M50.6215 16.3687C50.8056 16.3687 50.9624 16.4342 51.0919 16.5652C51.2214 16.6963 51.286 16.8539 51.286 17.038C51.286 17.2221 51.2214 17.3789 51.0919 17.5084C50.9624 17.6378 50.8056 17.7025 50.6215 17.7025C50.4374 17.7025 50.2799 17.6378 50.1488 17.5084C50.0178 17.3789 49.9522 17.2221 49.9522 17.038C49.9522 16.8539 50.0178 16.6963 50.1488 16.5652C50.2799 16.4342 50.4374 16.3687 50.6215 16.3687ZM47.893 20.8711C47.893 21.9756 48.2908 22.5279 49.0864 22.5279C49.4514 22.5279 49.7408 22.3844 49.9546 22.0973C50.1683 21.8103 50.2752 21.4016 50.2752 20.8711C50.2752 19.7822 49.879 19.2377 49.0864 19.2377C48.7214 19.2377 48.4311 19.3813 48.2159 19.6683C48.0006 19.9554 47.893 20.3563 47.893 20.8711ZM47.7197 16.3687C47.9038 16.3687 48.0606 16.4342 48.1901 16.5652C48.3196 16.6963 48.3844 16.8539 48.3844 17.038C48.3844 17.2221 48.3196 17.3789 48.1901 17.5084C48.0606 17.6378 47.9038 17.7025 47.7197 17.7025C47.5357 17.7025 47.3782 17.6378 47.2471 17.5084C47.116 17.3789 47.0505 17.2221 47.0505 17.038C47.0505 16.8539 47.116 16.6963 47.2471 16.5652C47.3782 16.4342 47.5357 16.3687 47.7197 16.3687ZM46.676 20.8711C46.676 20.1067 46.8968 19.4842 47.3383 19.0036C47.7798 18.5232 48.3625 18.2829 49.0864 18.2829C49.8476 18.2829 50.4389 18.5138 50.8602 18.9756C51.2814 19.4374 51.492 20.0693 51.492 20.8711C51.492 21.6699 51.2774 22.3049 50.8485 22.776C50.4195 23.2471 49.8321 23.4827 49.0864 23.4827C48.3251 23.4827 47.733 23.2448 47.3103 22.7689C46.8875 22.2931 46.676 21.6605 46.676 20.8711Z" fill="white"/>
<path d="M55.6528 23.389V20.492C55.6528 20.0645 55.5709 19.7525 55.4071 19.556C55.2433 19.3593 54.9757 19.2611 54.6044 19.2611C54.4328 19.2611 54.2495 19.3095 54.0546 19.4062C53.8595 19.5029 53.7074 19.6231 53.5982 19.7666V23.389H52.4281V18.3765H53.2705L53.4859 18.8446C53.8041 18.4701 54.2737 18.2829 54.8947 18.2829C55.4906 18.2829 55.961 18.4616 56.3057 18.8188C56.6504 19.1761 56.8228 19.6746 56.8228 20.3141V23.389H55.6528Z" fill="white"/>
<path d="M61.3299 23.389V20.3001C61.3299 19.9912 61.2332 19.7432 61.0398 19.556C60.8462 19.3687 60.5935 19.2751 60.2816 19.2751C60.088 19.2751 59.8931 19.3274 59.6966 19.4319C59.4999 19.5365 59.3596 19.6558 59.2753 19.7899V23.389H58.0865V16.5091L59.2753 16.2283V18.6948C59.578 18.4202 59.9945 18.2829 60.5249 18.2829C61.1521 18.2829 61.6388 18.4569 61.9852 18.8048C62.3314 19.1527 62.5047 19.6511 62.5047 20.3001V23.389H61.3299Z" fill="white"/>
<path d="M64.7046 20.361H67.1663C67.0852 19.6278 66.6796 19.2611 65.9495 19.2611C65.2818 19.2611 64.8668 19.6278 64.7046 20.361ZM68.2429 21.2408H64.6624C64.6842 21.6402 64.8216 21.9507 65.0743 22.1722C65.3271 22.3938 65.6671 22.5045 66.0946 22.5045C66.6282 22.5045 67.0338 22.3656 67.3115 22.0879L67.7654 22.9819C67.3536 23.3158 66.7389 23.4827 65.9214 23.4827C65.157 23.4827 64.5525 23.2588 64.1078 22.8111C63.6632 22.3633 63.4409 21.7386 63.4409 20.9367C63.4409 20.1473 63.685 19.5076 64.1734 19.0177C64.6616 18.5279 65.2475 18.2829 65.9307 18.2829C66.6578 18.2829 67.2412 18.4999 67.6813 18.9335C68.1211 19.3672 68.3412 19.9195 68.3412 20.5903C68.3412 20.7339 68.3084 20.9506 68.2429 21.2408Z" fill="white"/>
<path d="M72.1742 19.467C71.9652 19.3297 71.7358 19.2611 71.4863 19.2611C71.2148 19.2611 70.9738 19.3844 70.7631 19.6309C70.5527 19.8773 70.4473 20.1784 70.4473 20.5341V23.389H69.2773V18.3765H70.4473V18.8351C70.7749 18.4671 71.2102 18.2829 71.753 18.2829C72.1525 18.2829 72.4582 18.3437 72.6704 18.4655L72.1742 19.467Z" fill="white"/>
<path d="M73.0443 23.389V22.9912L75.7636 19.3968H73.0912V18.3765H77.4719V18.7884L74.8509 22.3688H77.4999V23.389H73.0443Z" fill="white"/>
</svg>
