<svg width="254" height="201" viewBox="0 0 254 201" fill="none" xmlns="http://www.w3.org/2000/svg">
<g clip-path="url(#clip0_1_3)">
<path d="M213.72 192.449C214.716 192.511 215.266 191.277 214.512 190.559L214.437 190.262C214.447 190.238 214.457 190.214 214.467 190.191C215.061 188.778 216.697 188.109 218.118 188.694C222.609 190.545 217.867 194.797 218.224 197.675C218.349 198.668 222.252 198.722 222.032 199.697C224.107 195.174 225.199 190.235 225.197 185.269C225.197 184.022 225.128 182.774 224.987 181.529C224.872 180.511 224.712 179.5 224.507 178.497C223.393 173.078 220.983 167.917 217.509 163.607C215.84 162.699 216.858 161.277 216.016 159.573C215.714 158.959 213.018 158.945 212.906 158.271C213.026 158.287 214.769 156.483 214.193 155.591C213.815 155.005 213.933 154.257 214.419 153.756C214.467 153.706 214.512 153.655 214.553 153.599C215.991 151.655 217.972 151.994 219.007 154.634C221.217 155.744 221.239 157.588 219.884 159.361C219.022 160.489 218.904 162.015 218.148 163.222C218.226 163.322 218.307 163.418 218.384 163.517C219.813 165.342 221.049 167.303 222.09 169.363C221.795 167.073 222.229 164.314 222.969 162.535C223.817 160.493 225.413 158.776 226.811 157.01C228.481 154.901 231.879 155.858 232.175 158.528C232.178 158.554 232.18 158.58 232.183 158.605C231.976 158.722 231.774 158.845 231.576 158.976C230.448 159.72 230.839 161.462 232.176 161.667L232.206 161.672C232.131 162.414 229.49 164.751 229.303 165.474C231.09 172.35 229.753 173.258 224.256 173.373L223.968 173.782C224.489 175.275 224.908 176.803 225.223 178.351C225.519 179.788 225.725 181.24 225.841 182.699C225.985 184.54 225.973 186.39 225.818 188.227L225.827 188.162C226.222 186.138 227.324 184.247 228.924 182.937C231.309 180.984 234.678 180.264 237.25 178.694C238.488 177.938 240.075 178.914 239.86 180.345L239.849 180.413C239.466 180.568 239.093 180.749 238.731 180.95C238.524 181.067 238.322 181.191 238.124 181.321C236.996 182.065 237.387 183.808 238.724 184.012L238.754 184.017C238.776 184.02 238.795 184.023 238.817 184.026C238.16 185.581 231.904 187.775 230.758 189.02C229.644 195.026 230.191 194.847 225.063 193.1H225.06C224.5 195.534 223.682 197.912 222.63 200.178L213.94 200.181C213.909 200.085 213.881 199.985 213.853 199.889C214.657 199.939 215.466 199.892 216.257 199.746C215.612 198.957 214.967 198.163 214.322 197.375C214.307 197.359 214.294 197.344 214.282 197.328L214.272 197.316L213.377 194.381C213.448 193.73 213.563 193.085 213.72 192.449L213.72 192.449V192.449V192.449Z" fill="#F2F2F2"/>
<path d="M121.893 200.11L45.0017 200.137C41.1389 200.138 37.6787 198.149 35.7461 194.816C34.7797 193.149 34.2964 191.321 34.2957 189.492C34.2951 187.663 34.7774 185.834 35.7424 184.167L74.1637 114.464C76.0942 111.129 79.553 109.138 83.4159 109.136C87.2787 109.135 90.7389 111.124 92.6717 114.457L131.146 184.143C132.11 185.805 132.592 187.631 132.592 189.459C132.592 191.287 132.11 193.116 131.145 194.783C129.215 198.117 125.756 200.109 121.893 200.11H121.893H121.893ZM35.2623 189.491C35.2622 191.155 43.7469 187.568 44.6259 189.084C46.3841 192.117 41.487 199.177 45.0014 199.176C45.0014 199.176 128.554 197.336 130.31 194.303C131.188 192.786 131.626 191.122 131.626 189.458C131.625 187.795 131.185 186.131 130.306 184.615L91.8315 114.93C90.0782 111.906 86.9306 110.096 83.4162 110.097C79.9035 110.099 35.2624 187.826 35.2623 189.491H35.2623V189.491Z" fill="#3F3D56"/>
<path d="M122.747 199.149C121.783 201.072 166.924 200.481 167.458 200.481C167.458 200.481 180.145 200.201 180.412 199.741C180.545 199.51 180.612 199.258 180.612 199.005C180.612 198.752 180.545 198.5 180.412 198.269L174.569 187.687C174.303 187.228 173.825 186.953 173.291 186.954C173.269 186.954 173.236 186.973 173.194 187.011C165.4 193.952 155.794 198.54 145.343 198.695C134.229 198.86 122.808 199.027 122.747 199.149H122.747V199.149Z" fill="#3F3D56"/>
<path d="M0.5 200.428C0.500111 200.746 0.755782 201 1.07405 201L252.926 200.913C253.245 200.913 253.5 200.658 253.5 200.341C253.5 200.024 253.244 199.769 252.926 199.769L1.07366 199.856C0.755387 199.856 0.499889 200.111 0.5 200.428H0.5Z" fill="#CCCCCC"/>
<path d="M195.253 197.653L190.892 197.654L188.811 180.889L195.248 180.888L195.253 197.653Z" fill="#A0616A"/>
<path d="M180.31 197.559C180.174 197.787 180.103 198.523 180.103 198.788C180.103 199.603 180.766 200.263 181.584 200.263L195.091 200.258C195.649 200.258 196.1 199.807 196.1 199.251L196.1 198.691C196.1 198.691 196.768 197.006 195.391 194.931C195.391 194.931 193.682 196.557 191.126 194.012L190.373 192.652L184.92 196.629L181.898 197C181.237 197.082 180.65 196.988 180.31 197.559H180.31V197.559Z" fill="#2F2E41"/>
<path d="M178.53 183.314L174.398 184.707L167.04 169.49L173.137 167.434L178.53 183.314Z" fill="#A0616A"/>
<path d="M164.344 187.995C164.289 188.254 164.457 188.974 164.543 189.225C164.805 189.997 165.645 190.411 166.419 190.149L179.213 185.834C179.742 185.656 180.025 185.085 179.846 184.558L179.666 184.027C179.666 184.027 179.757 182.218 177.786 180.691C177.786 180.691 176.689 182.777 173.45 181.182L172.299 180.134L168.412 185.642L165.668 186.959C165.068 187.247 164.483 187.345 164.344 187.995L164.344 187.995V187.995Z" fill="#2F2E41"/>
<path d="M171.793 86.0617L163.333 113.982L153.346 139.096L169.157 174.961L175.02 172.362L168.005 139.416L182.716 117.059L189.581 186.85L195.444 186.524L203.395 102.282L204.529 83.9403L171.793 86.0617Z" fill="#2F2E41"/>
<path d="M197.342 24.2126L184.965 26.4892L183.989 32.0081L176.498 35.5815L172.604 76.1604C172.604 76.1604 166.092 84.6028 171.305 87.198L204.529 83.9403C204.529 83.9403 206.156 77.9381 204.527 77.3687C202.898 76.7992 202.893 62.4622 202.893 62.4622L210.375 32.9728L199.298 29.0812L197.342 24.2126Z" fill="#E6E6E6"/>
<path d="M190.041 24.106C195.562 24.106 200.036 19.6465 200.036 14.1454C200.036 8.64428 195.562 4.18475 190.041 4.18475C184.521 4.18475 180.046 8.64428 180.046 14.1454C180.046 19.6465 184.521 24.106 190.041 24.106Z" fill="#A0616A"/>
<path d="M196.66 15.6238C195.863 16.0589 196.619 18.1364 196.121 18.316C195.545 18.5236 193.444 16.1405 193.418 13.4712C193.41 12.6634 193.597 12.2754 193.417 11.3176C193.182 10.0646 192.462 8.58684 191.795 8.62607C191.4 8.64932 191.014 9.2062 190.985 9.70317C190.945 10.3997 191.624 10.6738 191.526 11.049C191.34 11.7636 188.489 12.257 187.474 11.0504C186.678 10.1045 187.289 8.44358 186.933 8.35854C186.671 8.29585 186.389 9.21027 185.313 10.2435C184.907 10.6328 184.304 11.2118 183.962 11.0516C183.469 10.8202 183.827 9.18891 183.692 9.16728C183.579 9.14937 183.509 10.2959 182.882 11.3212C182.077 12.6384 180.416 13.6537 179.641 13.2068C179.166 12.933 179.129 12.1707 179.1 11.5917C179.04 10.372 177.261 7.56643 177.721 6.26163C178.658 3.60597 180.263 5.47796 180.989 4.5917C181.971 3.39192 182.853 4.03698 184.5 2.70604C186.109 1.40585 186.123 0.0990423 187.2 0.0130431C188.17 -0.0644023 188.515 0.967069 189.632 0.819824C190.577 0.695087 190.783 -0.104927 191.522 0.0115486C192.199 0.118183 192.244 0.822952 193.143 1.08782C193.718 1.25691 193.844 1.01216 194.494 1.08735C195.847 1.2438 196.756 2.47173 196.926 2.70175C197.582 3.58849 197.327 3.96243 198.007 4.85503C198.593 5.62477 199.892 5.2979 200.381 5.68235C201.976 6.93855 202.662 9.25523 202.676 11.8957C202.685 13.7425 202.444 14.6756 201.905 17.0066C201.495 18.7767 199.599 21.0641 198.553 22.0841C198.273 22.3579 197.486 23.1254 196.933 22.8923C196.409 22.6713 196.393 21.6776 196.392 21.5464C196.39 21.0952 196.51 20.5368 197.472 19.1232C198.482 17.6382 198.883 17.4688 198.822 16.969C198.714 16.0857 197.296 15.2769 196.66 15.6238H196.66V15.6238Z" fill="#2F2E41"/>
<path d="M161.796 108.489C161.485 111.085 162.577 113.35 164.234 113.547C165.892 113.744 167.488 111.799 167.8 109.203C167.936 108.067 167.803 106.994 167.472 106.13L168.651 95.1126L163.452 94.671L162.841 105.579C162.315 106.341 161.932 107.352 161.796 108.489H161.796H161.796Z" fill="#A0616A"/>
<path d="M176.743 35.3193C176.743 35.3193 174.049 35.3575 172.265 38.8291C171.317 40.674 166.246 75.172 166.246 75.172L161.575 103.432L169.532 103.472L175.733 76.7091L180.949 61.1869L176.743 35.3193L176.743 35.3193Z" fill="#E6E6E6"/>
<path d="M199.136 104.342C198.374 106.844 199.051 109.264 200.649 109.747C202.246 110.23 204.159 108.594 204.921 106.092C205.255 104.997 205.313 103.917 205.138 103.009L208.233 92.367L203.191 91.0258L200.675 101.659C200.023 102.317 199.469 103.247 199.136 104.342V104.342V104.342Z" fill="#A0616A"/>
<path d="M204.674 33.4617C204.674 33.4617 208.582 30.5388 211.841 35.0824C215.1 39.6259 216.416 76.9569 216.416 76.9569L207.303 100.008L200.462 97.7381L206.967 69.4939L195.559 48.0728L204.674 33.4617H204.674V33.4617Z" fill="#E6E6E6"/>
<path d="M105.853 184.738C125.294 184.738 141.054 169.033 141.054 149.658C141.054 130.284 125.294 114.578 105.853 114.578C86.4115 114.578 70.6514 130.284 70.6514 149.658C70.6514 169.033 86.4115 184.738 105.853 184.738Z" fill="#F6AE2D"/>
<path d="M105.859 171.163C107.644 171.163 109.091 169.721 109.091 167.942C109.091 166.163 107.644 164.721 105.859 164.721C104.074 164.721 102.627 166.163 102.627 167.942C102.627 169.721 104.074 171.163 105.859 171.163Z" fill="white"/>
<path d="M105.845 128.154C105.548 130.12 106.08 130.531 106.083 139.007C106.086 147.483 107.851 158.847 105.856 158.847C103.861 158.848 103.131 135.395 96.2035 133.32C88.0586 130.879 106.806 121.789 105.845 128.154V128.154Z" fill="white"/>
<path d="M58.6075 167.569L55.4272 174.265C59.272 171.518 65.2774 169.149 70.0563 167.881C65.6035 165.737 60.155 162.282 56.8999 158.86L58.7292 165.936C37.2835 161.583 21.883 145.187 21.8765 126.406L21.1018 126.141C21.1086 145.758 36.296 163.124 58.6075 167.569V167.569Z" fill="#3F3D56"/>
</g>
<defs>
<clipPath id="clip0_1_3">
<rect width="253" height="201" fill="white" transform="translate(0.5)"/>
</clipPath>
</defs>
</svg>
